<svg version="1.1" xmlns="http://www.w3.org/2000/svg" xmlns:xlink="http://www.w3.org/1999/xlink" width="38.625" height="38.72731" viewBox="0,0,38.625,38.72731"><g transform="translate(-220.11664,-159.49464)"><g data-paper-data="{&quot;isPaintingLayer&quot;:true}" fill-rule="nonzero" stroke-linecap="butt" stroke-linejoin="miter" stroke-miterlimit="10" stroke-dasharray="" stroke-dashoffset="0" style="mix-blend-mode: normal"><path d="M220.61664,197.72195v-37.72731h37.625v37.72731z" fill="#9c9c9c" stroke="#000000" stroke-width="1"/><path d="M223.18454,195.65564v-16.89151h32.75v16.89151z" fill="#000000" stroke="none" stroke-width="0"/><path d="M239.80954,187.47639c0,0.25 -0.25,0.25 -0.25,0.25c-0.83334,0 -1.91666,0 -2.75,0c0,0 -0.25,0 -0.25,-0.25c0,-0.25 0.25,-0.25 0.25,-0.25c0.83334,0 1.66666,0 2.5,0h0.25c0,0 0.25,0 0.25,0.25z" fill="#ffea00" stroke="none" stroke-width="0.5"/><path d="M245.55954,187.85139c0,0.25 -0.25,0.25 -0.25,0.25c-0.75,0 -1.75,0 -2.5,0c0,0 -0.25,0 -0.25,-0.25c0,-0.25 0.25,-0.25 0.25,-0.25c0.75,0 1.5,0 2.25,0h0.25c0,0 0.25,0 0.25,0.25z" fill="#ffea00" stroke="none" stroke-width="0.5"/><path d="M252.68454,187.72639c0,0.25 -0.25,0.25 -0.25,0.25h-0.125c-0.92081,0 -2.28121,0.2435 -3.1118,-0.15139c0,0 -0.22361,-0.1118 -0.1118,-0.33541c0.1118,-0.22361 0.33541,-0.1118 0.33541,-0.1118c0.6849,0.36862 2.10308,0.09861 2.8882,0.09861h0.125c0,0 0.25,0 0.25,0.25z" fill="#ffea00" stroke="none" stroke-width="0.5"/><path d="M223.69028,177.32986v-3.76305h31.45493v3.76305z" fill="#cbcbcb" stroke="#000000" stroke-width="0.5"/><path d="M226.93454,187.22639c0,0.25 -0.25,0.25 -0.25,0.25c-0.41666,0 -1.08334,0 -1.5,0c0,0 -0.25,0 -0.25,-0.25c0,-0.25 0.25,-0.25 0.25,-0.25c0.41666,0 0.83334,0 1.25,0h0.25c0,0 0.25,0 0.25,0.25z" fill="#ffea00" stroke="none" stroke-width="0.5"/><path d="M233.30954,187.35139c0,0.25 -0.25,0.25 -0.25,0.25c-0.83334,0 -1.79166,0 -2.625,0c0,0 -0.25,0 -0.25,-0.25c0,-0.25 0.25,-0.25 0.25,-0.25c0.83334,0 1.66666,0 2.5,0h0.125c0,0 0.25,0 0.25,0.25z" fill="#ffea00" stroke="none" stroke-width="0.5"/><path d="M222.58038,172.0154v-9.75138h12.15472v9.75138z" fill="#000000" stroke="none" stroke-width="0"/></g></g></svg>