<svg version="1.1" xmlns="http://www.w3.org/2000/svg" xmlns:xlink="http://www.w3.org/1999/xlink" width="18.98352" height="18.32005" viewBox="0,0,18.98352,18.32005"><g transform="translate(-230.37242,-171.28296)"><g data-paper-data="{&quot;isPaintingLayer&quot;:true}" fill-rule="nonzero" stroke="none" stroke-width="0" stroke-linecap="butt" stroke-linejoin="miter" stroke-miterlimit="10" stroke-dasharray="" stroke-dashoffset="0" style="mix-blend-mode: normal"><path d="M230.37242,175.23596c0,-2.18318 2.15248,-3.953 4.8077,-3.953c2.65522,0 4.8077,1.76982 4.8077,3.953c0,2.18318 -2.15248,3.953 -4.8077,3.953c-2.65522,0 -4.8077,-1.76982 -4.8077,-3.953z" fill="#422300"/><path d="M230.9081,180.74899c0,-4.34338 3.71662,-7.86439 8.3013,-7.86439c4.58468,0 8.3013,3.52101 8.3013,7.86439c0,4.34338 -3.71662,7.86439 -8.3013,7.86439c-4.58468,0 -8.3013,-3.52101 -8.3013,-7.86439z" fill="#422300"/><path d="M242.86423,189.18878c-1.91141,-1.05489 -2.42086,-3.79458 -1.13789,-6.11927c1.28297,-2.32469 3.87253,-3.35406 5.78394,-2.29918c1.91141,1.05489 2.42086,3.79457 1.13789,6.11926c-1.28297,2.32469 -3.87253,3.35407 -5.78394,2.29918z" fill="#422300"/></g></g></svg>