<svg version="1.1" xmlns="http://www.w3.org/2000/svg" xmlns:xlink="http://www.w3.org/1999/xlink" width="13.07598" height="13.50489" viewBox="0,0,13.07598,13.50489"><g transform="translate(-236.24748,-173.05796)"><g data-paper-data="{&quot;isPaintingLayer&quot;:true}" fill="#3800b0" fill-rule="nonzero" stroke="none" stroke-width="0.5" stroke-linecap="butt" stroke-linejoin="miter" stroke-miterlimit="10" stroke-dasharray="" stroke-dashoffset="0" style="mix-blend-mode: normal"><path d="M238.39203,175.95021c0,-1.12359 0.91085,-2.03442 2.03442,-2.03442c1.12359,0 2.03442,0.91085 2.03442,2.03442c0,1.12359 -0.91085,2.03442 -2.03442,2.03442c-1.12359,0 -2.03442,-0.91085 -2.03442,-2.03442z"/><path d="M245.25461,181.74051c0,-1.12359 0.91085,-2.03442 2.03442,-2.03442c1.12359,0 2.03442,0.91085 2.03442,2.03442c0,1.12359 -0.91085,2.03442 -2.03442,2.03442c-1.12359,0 -2.03442,-0.91085 -2.03442,-2.03442z"/><path d="M245.04016,175.09238c0,-1.12359 0.91085,-2.03442 2.03442,-2.03442c1.12359,0 2.03442,0.91085 2.03442,2.03442c0,1.12359 -0.91085,2.03442 -2.03442,2.03442c-1.12359,0 -2.03442,-0.91085 -2.03442,-2.03442z"/><path d="M240.75105,180.02485c0,-1.12359 0.91085,-2.03442 2.03442,-2.03442c1.12359,0 2.03442,0.91085 2.03442,2.03442c0,1.12359 -0.91085,2.03442 -2.03442,2.03442c-1.12359,0 -2.03442,-0.91085 -2.03442,-2.03442z"/><path d="M236.24748,183.45616c0,-1.12359 0.91085,-2.03442 2.03442,-2.03442c1.12359,0 2.03442,0.91085 2.03442,2.03442c0,1.12359 -0.91085,2.03442 -2.03442,2.03442c-1.12359,0 -2.03442,-0.91085 -2.03442,-2.03442z"/><path d="M240.9655,184.52843c0,-1.12359 0.91085,-2.03442 2.03442,-2.03442c1.12359,0 2.03442,0.91085 2.03442,2.03442c0,1.12359 -0.91085,2.03442 -2.03442,2.03442c-1.12359,0 -2.03442,-0.91085 -2.03442,-2.03442z"/></g></g></svg>