<svg version="1.1" xmlns="http://www.w3.org/2000/svg" xmlns:xlink="http://www.w3.org/1999/xlink" width="19.08995" height="19.66475" viewBox="0,0,19.08995,19.66475"><g transform="translate(-230.45503,-170.16762)"><g data-paper-data="{&quot;isPaintingLayer&quot;:true}" fill-rule="nonzero" stroke-linecap="butt" stroke-linejoin="miter" stroke-miterlimit="10" stroke-dasharray="" stroke-dashoffset="0" style="mix-blend-mode: normal"><path d="M231.45503,188.83237v-17.66475h17.08995v17.66475z" fill="none" stroke="#47ad40" stroke-width="2"/><path d="M239.91832,181.96921v-3.9726h9.10959v3.9726z" fill="#47ad40" stroke="none" stroke-width="0"/><path d="M239.41832,180.0514c0,-0.27614 0.22386,-0.5 0.5,-0.5c0.27614,0 0.5,0.22386 0.5,0.5c0,0.27614 -0.22386,0.5 -0.5,0.5c-0.27614,0 -0.5,-0.22386 -0.5,-0.5z" fill="#000000" stroke="none" stroke-width="0.5"/><path d="M243.13749,188.4966c-0.5,0 -0.5,-0.5 -0.5,-0.5c0,-1.82648 0,-4.26941 0,-6.09589c0,0 0,-0.5 0.5,-0.5c0.5,0 0.5,0.5 0.5,0.5c0,1.82648 0,3.65297 0,5.47945v0.61644c0,0 0,0.5 -0.5,0.5z" fill="#000000" stroke="none" stroke-width="0.5"/><path d="M243.29261,171.65898c0.44721,0.22361 0.22361,0.67082 0.22361,0.67082l-0.01571,-0.08662c0,1.76295 -0.1801,3.53312 -0.00248,5.29271c0,0 0.04975,0.49752 -0.44777,0.54727c-0.49752,0.04975 -0.54727,-0.44777 -0.54727,-0.44777c-0.1779,-1.79478 -0.00248,-3.59472 -0.00248,-5.39222l0.12128,-0.36059c0,0 0.22361,-0.44721 0.67082,-0.22361z" fill="#000000" stroke="none" stroke-width="0.5"/><path d="M233.41147,187.10619v-15.06849h1.78082v15.06849z" fill="none" stroke="#47ad40" stroke-width="2"/></g></g></svg>