<svg version="1.1" xmlns="http://www.w3.org/2000/svg" xmlns:xlink="http://www.w3.org/1999/xlink" width="30.58509" height="56.56742" viewBox="0,0,30.58509,56.56742"><defs><radialGradient cx="240.05515" cy="167.02004" r="9.04569" gradientUnits="userSpaceOnUse" id="color-1"><stop offset="0" stop-color="#00d7c0"/><stop offset="1" stop-color="#50fff5"/></radialGradient><linearGradient x1="240" y1="167.13216" x2="240" y2="184.52851" gradientUnits="userSpaceOnUse" id="color-2"><stop offset="0" stop-color="#959595"/><stop offset="1" stop-color="#9d9d9d"/></linearGradient><radialGradient cx="249.56127" cy="199.56639" r="15.25862" gradientUnits="userSpaceOnUse" id="color-3"><stop offset="0" stop-color="#cccccc"/><stop offset="1" stop-color="#a0a0a0"/></radialGradient><radialGradient cx="231.56127" cy="199.70924" r="15.25862" gradientUnits="userSpaceOnUse" id="color-4"><stop offset="0" stop-color="#cccccc"/><stop offset="1" stop-color="#a0a0a0"/></radialGradient><linearGradient x1="240.26411" y1="184.43122" x2="240.26411" y2="201.82756" gradientUnits="userSpaceOnUse" id="color-5"><stop offset="0" stop-color="#9d9d9d"/><stop offset="1" stop-color="#717171"/></linearGradient></defs><g transform="translate(-224.99114,-158.17244)"><g data-paper-data="{&quot;isPaintingLayer&quot;:true}" fill-rule="nonzero" stroke="none" stroke-width="0" stroke-linecap="butt" stroke-linejoin="miter" stroke-miterlimit="10" stroke-dasharray="" stroke-dashoffset="0" style="mix-blend-mode: normal"><path d="M231.00946,167.02004c0,-4.8864 4.04989,-8.8476 9.04569,-8.8476c4.99579,0 9.04569,3.9612 9.04569,8.8476c0,4.8864 -4.04989,8.84761 -9.04569,8.84761c-4.99579,0 -9.04569,-3.96121 -9.04569,-8.84761z" fill="url(#color-1)"/><path d="M230.87145,184.52851v-17.39635h18.2571v17.39635z" fill="url(#color-2)"/><path d="M243.95165,214.54351c0,0 3.04888,-4.92269 3.00814,-8.58631c-0.0198,-1.78 -3.96864,-7.84902 -3.96864,-7.84902l0.16949,-13.73015l12.17882,-0.13547l0.23678,13.88027c0,0 -3.80723,6.15692 -3.78725,7.95308c0.03962,3.5622 2.85358,8.5211 2.85358,8.5211z" fill="url(#color-3)"/><path d="M225.95165,214.68636c0,0 3.04888,-4.9227 3.00813,-8.58632c-0.0198,-1.78 -3.96865,-7.84902 -3.96865,-7.84902l0.16949,-13.73015l12.17881,-0.13547l0.23679,13.88027c0,0 -3.80723,6.15692 -3.78726,7.95308c0.03962,3.56221 2.85358,8.52111 2.85358,8.52111z" fill="url(#color-4)"/><path d="M237.21004,201.82756v-17.39635h6.10815v17.39635z" fill="url(#color-5)"/></g></g></svg>