<svg version="1.1" xmlns="http://www.w3.org/2000/svg" xmlns:xlink="http://www.w3.org/1999/xlink" width="38.625" height="38.72731" viewBox="0,0,38.625,38.72731"><defs><radialGradient cx="252.05133" cy="167.1533" r="4.30901" gradientUnits="userSpaceOnUse" id="color-1"><stop offset="0" stop-color="#00e9f6"/><stop offset="1" stop-color="#00c1e6"/></radialGradient><radialGradient cx="251.95245" cy="177.28795" r="4.30902" gradientUnits="userSpaceOnUse" id="color-2"><stop offset="0" stop-color="#00e9f6"/><stop offset="1" stop-color="#00c1e6"/></radialGradient></defs><g transform="translate(-220.6875,-160.63637)"><g data-paper-data="{&quot;isPaintingLayer&quot;:true}" fill-rule="nonzero" stroke-linejoin="miter" stroke-miterlimit="10" stroke-dasharray="" stroke-dashoffset="0" style="mix-blend-mode: normal"><path d="M221.1875,198.86368v-37.72731h37.625v37.72731z" fill="#9c9c9c" stroke="#000000" stroke-width="1" stroke-linecap="butt"/><path d="M237.5625,180.00002c0,-1.44975 1.09131,-2.625 2.4375,-2.625c1.34619,0 2.4375,1.17525 2.4375,2.625c0,1.44975 -1.09131,2.625 -2.4375,2.625c-1.34619,0 -2.4375,-1.17525 -2.4375,-2.625z" fill="#cbcbcb" stroke="#000000" stroke-width="0.5" stroke-linecap="butt"/><path d="M222.2554,184.17238v-19.875h6.79663v19.875z" fill="#cbcbcb" stroke="#000000" stroke-width="0.5" stroke-linecap="butt"/><path d="M230.0054,184.29738v-19.875h6.79664v19.875z" fill="#cbcbcb" stroke="#000000" stroke-width="0.5" stroke-linecap="butt"/><path d="M223.7554,196.79737v-9.25h32.75v9.25z" fill="#000000" stroke="none" stroke-width="0" stroke-linecap="butt"/><path d="M227.5054,192.04737c0,0.25 -0.25,0.25 -0.25,0.25c-0.41666,0 -1.08334,0 -1.5,0c0,0 -0.25,0 -0.25,-0.25c0,-0.25 0.25,-0.25 0.25,-0.25c0.41666,0 0.83334,0 1.25,0h0.25c0,0 0.25,0 0.25,0.25z" fill="#ffea00" stroke="none" stroke-width="0.5" stroke-linecap="butt"/><path d="M233.8804,192.17237c0,0.25 -0.25,0.25 -0.25,0.25c-0.83334,0 -1.79166,0 -2.625,0c0,0 -0.25,0 -0.25,-0.25c0,-0.25 0.25,-0.25 0.25,-0.25c0.83334,0 1.66666,0 2.5,0h0.125c0,0 0.25,0 0.25,0.25z" fill="#ffea00" stroke="none" stroke-width="0.5" stroke-linecap="butt"/><path d="M240.3804,192.29737c0,0.25 -0.25,0.25 -0.25,0.25c-0.83334,0 -1.91666,0 -2.75,0c0,0 -0.25,0 -0.25,-0.25c0,-0.25 0.25,-0.25 0.25,-0.25c0.83334,0 1.66666,0 2.5,0h0.25c0,0 0.25,0 0.25,0.25z" fill="#ffea00" stroke="none" stroke-width="0.5" stroke-linecap="butt"/><path d="M246.1304,192.67237c0,0.25 -0.25,0.25 -0.25,0.25c-0.75,0 -1.75,0 -2.5,0c0,0 -0.25,0 -0.25,-0.25c0,-0.25 0.25,-0.25 0.25,-0.25c0.75,0 1.5,0 2.25,0h0.25c0,0 0.25,0 0.25,0.25z" fill="#ffea00" stroke="none" stroke-width="0.5" stroke-linecap="butt"/><path d="M253.2554,192.54737c0,0.25 -0.25,0.25 -0.25,0.25h-0.125c-0.92081,0 -2.28121,0.2435 -3.1118,-0.15139c0,0 -0.22361,-0.1118 -0.1118,-0.33541c0.1118,-0.22361 0.33541,-0.1118 0.33541,-0.1118c0.6849,0.36862 2.10308,0.09861 2.8882,0.09861h0.125c0,0 0.25,0 0.25,0.25z" fill="#ffea00" stroke="none" stroke-width="0.5" stroke-linecap="butt"/><path d="M247.88254,171.46231v-8.61801h8.33759v8.61801z" fill="url(#color-1)" stroke="#000000" stroke-width="0.25" stroke-linecap="butt"/><path d="M250.8218,162.81456l-0.06099,8.53764" fill="none" stroke="#000000" stroke-width="0.25" stroke-linecap="round"/><path d="M253.80997,162.9975v8.29371" fill="none" stroke="#000000" stroke-width="0.25" stroke-linecap="round"/><path d="M248.01657,164.58307h8.17174" fill="none" stroke="#000000" stroke-width="0.25" stroke-linecap="round"/><path d="M247.95559,166.10765h8.23272" fill="none" stroke="#000000" stroke-width="0.25" stroke-linecap="round"/><path d="M247.95559,167.44927h8.17174" fill="none" stroke="#000000" stroke-width="0.25" stroke-linecap="round"/><path d="M247.89461,168.97385h8.23272" fill="none" stroke="#000000" stroke-width="0.25" stroke-linecap="round"/><path d="M247.95559,170.2545h8.23272" fill="none" stroke="#000000" stroke-width="0.25" stroke-linecap="round"/><path d="M247.78366,181.59696v-8.61801h8.33759v8.61801z" fill="url(#color-2)" stroke="#000000" stroke-width="0.25" stroke-linecap="butt"/><path d="M250.72292,172.94921l-0.06099,8.53764" fill="none" stroke="#000000" stroke-width="0.25" stroke-linecap="round"/><path d="M253.71109,173.13215v8.29371" fill="none" stroke="#000000" stroke-width="0.25" stroke-linecap="round"/><path d="M247.91769,174.71772h8.17174" fill="none" stroke="#000000" stroke-width="0.25" stroke-linecap="round"/><path d="M247.85671,176.2423h8.23272" fill="none" stroke="#000000" stroke-width="0.25" stroke-linecap="round"/><path d="M247.85671,177.58392h8.17174" fill="none" stroke="#000000" stroke-width="0.25" stroke-linecap="round"/><path d="M247.79573,179.1085h8.23273" fill="none" stroke="#000000" stroke-width="0.25" stroke-linecap="round"/><path d="M247.85671,180.38915h8.23272" fill="none" stroke="#000000" stroke-width="0.25" stroke-linecap="round"/></g></g></svg>