<svg version="1.1" xmlns="http://www.w3.org/2000/svg" xmlns:xlink="http://www.w3.org/1999/xlink" width="13.13189" height="13.56263" viewBox="0,0,13.13189,13.56263"><g transform="translate(-236.08876,-172.94863)"><g data-paper-data="{&quot;isPaintingLayer&quot;:true}" fill="#deab22" fill-rule="nonzero" stroke="none" stroke-width="0.5" stroke-linecap="butt" stroke-linejoin="miter" stroke-miterlimit="10" stroke-dasharray="" stroke-dashoffset="0" style="mix-blend-mode: normal"><path d="M238.24249,175.85324c0,-1.12839 0.91474,-2.04312 2.04312,-2.04312c1.12839,0 2.04313,0.91473 2.04313,2.04312c0,1.12839 -0.91474,2.04313 -2.04313,2.04313c-1.12839,0 -2.04312,-0.91474 -2.04312,-2.04313z"/><path d="M245.1344,181.6683c0,-1.12839 0.91474,-2.04313 2.04313,-2.04313c1.12839,0 2.04312,0.91474 2.04312,2.04313c0,1.12839 -0.91473,2.04312 -2.04312,2.04312c-1.12839,0 -2.04313,-0.91473 -2.04313,-2.04312z"/><path d="M244.91903,174.99176c0,-1.12839 0.91474,-2.04313 2.04313,-2.04313c1.12839,0 2.04313,0.91474 2.04313,2.04313c0,1.12839 -0.91474,2.04313 -2.04313,2.04313c-1.12839,0 -2.04313,-0.91474 -2.04313,-2.04313z"/><path d="M240.61158,179.94532c0,-1.12839 0.91473,-2.04313 2.04312,-2.04313c1.12839,0 2.04313,0.91474 2.04313,2.04313c0,1.12839 -0.91474,2.04313 -2.04313,2.04313c-1.12839,0 -2.04312,-0.91474 -2.04312,-2.04313z"/><path d="M236.08876,183.39128c0,-1.12839 0.91474,-2.04312 2.04313,-2.04312c1.12839,0 2.04313,0.91473 2.04313,2.04312c0,1.12839 -0.91474,2.04313 -2.04313,2.04313c-1.12839,0 -2.04313,-0.91474 -2.04313,-2.04313z"/><path d="M240.82695,184.46814c0,-1.12839 0.91474,-2.04313 2.04313,-2.04313c1.12839,0 2.04313,0.91474 2.04313,2.04313c0,1.12839 -0.91474,2.04312 -2.04313,2.04312c-1.12839,0 -2.04313,-0.91473 -2.04313,-2.04312z"/></g></g></svg>