<svg version="1.1" xmlns="http://www.w3.org/2000/svg" xmlns:xlink="http://www.w3.org/1999/xlink" width="13.15761" height="13.58917" viewBox="0,0,13.15761,13.58917"><g transform="translate(-236.72369,-172.86928)"><g data-paper-data="{&quot;isPaintingLayer&quot;:true}" fill="#d3d3d3" fill-rule="nonzero" stroke="none" stroke-width="0.5" stroke-linecap="butt" stroke-linejoin="miter" stroke-miterlimit="10" stroke-dasharray="" stroke-dashoffset="0" style="mix-blend-mode: normal"><path d="M238.88164,175.77957c0,-1.1306 0.91652,-2.04712 2.04712,-2.04712c1.1306,0 2.04713,0.91652 2.04713,2.04712c0,1.1306 -0.91653,2.04712 -2.04713,2.04712c-1.1306,0 -2.04712,-0.91653 -2.04712,-2.04712z"/><path d="M245.78705,181.60601c0,-1.1306 0.91653,-2.04712 2.04713,-2.04712c1.1306,0 2.04712,0.91652 2.04712,2.04712c0,1.1306 -0.91652,2.04713 -2.04712,2.04713c-1.1306,0 -2.04713,-0.91653 -2.04713,-2.04713z"/><path d="M245.57125,174.9164c0,-1.1306 0.91653,-2.04712 2.04712,-2.04712c1.1306,0 2.04712,0.91653 2.04712,2.04712c0,1.1306 -0.91653,2.04712 -2.04712,2.04712c-1.1306,0 -2.04712,-0.91652 -2.04712,-2.04712z"/><path d="M241.25536,179.87964c0,-1.1306 0.91653,-2.04712 2.04712,-2.04712c1.1306,0 2.04712,0.91653 2.04712,2.04712c0,1.1306 -0.91652,2.04713 -2.04712,2.04713c-1.1306,0 -2.04712,-0.91653 -2.04712,-2.04713z"/><path d="M236.7237,183.33238c0,-1.1306 0.91653,-2.04712 2.04713,-2.04712c1.1306,0 2.04712,0.91653 2.04712,2.04712c0,1.1306 -0.91652,2.04713 -2.04712,2.04713c-1.1306,0 -2.04713,-0.91653 -2.04713,-2.04713z"/><path d="M241.47116,184.41134c0,-1.1306 0.91653,-2.04713 2.04713,-2.04713c1.1306,0 2.04712,0.91653 2.04712,2.04713c0,1.1306 -0.91653,2.04712 -2.04712,2.04712c-1.1306,0 -2.04713,-0.91653 -2.04713,-2.04712z"/></g></g></svg>