<svg version="1.1" xmlns="http://www.w3.org/2000/svg" xmlns:xlink="http://www.w3.org/1999/xlink" width="14.95092" height="7.45481" viewBox="0,0,14.95092,7.45481"><defs><radialGradient cx="239.9409" cy="179.03826" r="5.6402" gradientUnits="userSpaceOnUse" id="color-1"><stop offset="0" stop-color="#ca1515"/><stop offset="1" stop-color="#ff5600"/></radialGradient></defs><g transform="translate(-232.52454,-175.31085)"><g data-paper-data="{&quot;isPaintingLayer&quot;:true}" fill-rule="nonzero" stroke="none" stroke-width="0" stroke-linecap="butt" stroke-linejoin="miter" stroke-miterlimit="10" stroke-dasharray="" stroke-dashoffset="0" style="mix-blend-mode: normal"><path d="M247.47543,179.04941c-0.00614,2.04916 -0.93253,3.7076 -2.06912,3.70419c-1.13661,-0.00341 -2.05303,-1.66735 -2.0469,-3.71653c0.00614,-2.04916 0.93253,-3.7076 2.06913,-3.70418c1.13661,0.00341 2.05302,1.66735 2.04689,3.71653z" fill="#fe5500"/><path d="M236.64058,179.0479c-0.00614,2.04916 -0.93253,3.7076 -2.06912,3.70419c-1.13661,-0.00341 -2.05302,-1.66735 -2.04689,-3.71653c0.00614,-2.04916 0.93253,-3.7076 2.06912,-3.70419c1.13661,0.00341 2.05302,1.66735 2.04689,3.71653z" fill="#fe5500"/><path d="M245.59219,175.34465l-0.02223,7.42101l-11.28034,-0.0338l0.02223,-7.42101z" fill="url(#color-1)"/></g></g></svg>