<svg version="1.1" xmlns="http://www.w3.org/2000/svg" xmlns:xlink="http://www.w3.org/1999/xlink" width="8.6331" height="15.74828" viewBox="0,0,8.6331,15.74828"><defs><radialGradient cx="240.00001" cy="180.92498" r="6.94917" gradientUnits="userSpaceOnUse" id="color-1"><stop offset="0" stop-color="#fcb722"/><stop offset="1" stop-color="#ffe312"/></radialGradient><radialGradient cx="240.00001" cy="174.09439" r="4.26911" gradientUnits="userSpaceOnUse" id="color-2"><stop offset="0" stop-color="#fcb722"/><stop offset="1" stop-color="#ffe312"/></radialGradient></defs><g transform="translate(-235.68345,-172.12586)"><g data-paper-data="{&quot;isPaintingLayer&quot;:true}" fill-rule="nonzero" stroke="none" stroke-width="0" stroke-linecap="butt" stroke-linejoin="miter" stroke-miterlimit="10" stroke-dasharray="" stroke-dashoffset="0" style="mix-blend-mode: normal"><path d="M235.68345,187.87414v-13.89834h8.6331v13.89834z" fill="url(#color-1)"/><path d="M235.73089,174.09439c0,-1.08719 1.91135,-1.96853 4.26911,-1.96853c2.35776,0 4.26911,0.88134 4.26911,1.96853c0,1.08719 -1.91135,1.96853 -4.26911,1.96853c-2.35776,0 -4.26911,-0.88134 -4.26911,-1.96853z" fill="url(#color-2)"/><path d="M237.01162,183.74733c0,0 0.02809,-1.04547 0.60281,-1.7989c0.47803,-0.62667 1.57919,-1.04718 1.57919,-1.04718l-2.18199,-2.75121h5.83446l-1.99226,2.79864c0,0 0.77691,0.17731 1.34133,0.92294c0.55397,0.73182 0.65093,1.8757 0.65093,1.8757z" fill="#5a5a5a"/></g></g></svg>