<svg version="1.1" xmlns="http://www.w3.org/2000/svg" xmlns:xlink="http://www.w3.org/1999/xlink" width="7.53611" height="14.95107" viewBox="0,0,7.53611,14.95107"><defs><radialGradient cx="240.50466" cy="179.46923" r="5.6402" gradientUnits="userSpaceOnUse" id="color-1"><stop offset="0" stop-color="#ca1515"/><stop offset="1" stop-color="#ff5600"/></radialGradient></defs><g transform="translate(-236.7366,-172.05276)"><g data-paper-data="{&quot;isPaintingLayer&quot;:true}" fill-rule="nonzero" stroke="none" stroke-width="0" stroke-linecap="butt" stroke-linejoin="miter" stroke-miterlimit="10" stroke-dasharray="" stroke-dashoffset="0" style="mix-blend-mode: normal"><path d="M240.43897,187.00348c-2.04907,-0.02097 -3.70075,-0.95934 -3.68911,-2.09588c0.01163,-1.13655 1.68217,-2.04091 3.73124,-2.01994c2.04907,0.02097 3.70075,0.95934 3.68911,2.09589c-0.01163,1.13655 -1.68217,2.0409 -3.73124,2.01993z" fill="#fe5500"/><path d="M240.5189,176.16893c-2.04907,-0.02097 -3.70075,-0.95934 -3.68911,-2.09588c0.01163,-1.13655 1.68217,-2.0409 3.73124,-2.01993c2.04907,0.02097 3.70075,0.95934 3.68911,2.09588c-0.01163,1.13655 -1.68217,2.0409 -3.73124,2.01993z" fill="#fe5500"/><path d="M244.15726,185.14711l-7.42066,-0.07595l0.11545,-11.2798l7.42066,0.07595z" fill="url(#color-1)"/></g></g></svg>