<svg version="1.1" xmlns="http://www.w3.org/2000/svg" xmlns:xlink="http://www.w3.org/1999/xlink" width="113.30273" height="12.74261" viewBox="0,0,113.30273,12.74261"><defs><radialGradient cx="234.14749" cy="180.27536" r="15.25862" gradientUnits="userSpaceOnUse" id="color-1"><stop offset="0" stop-color="#cccccc"/><stop offset="1" stop-color="#a0a0a0"/></radialGradient></defs><g transform="translate(-136.15966,-173.70748)"><g data-paper-data="{&quot;isPaintingLayer&quot;:true}" fill-rule="nonzero" stroke="none" stroke-linecap="butt" stroke-linejoin="miter" stroke-miterlimit="10" stroke-dasharray="" stroke-dashoffset="0" style="mix-blend-mode: normal"><path d="M210.05834,181.11421c0.00066,-0.11173 0.01177,-0.22093 0.0324,-0.32672c-0.15097,-0.01526 -0.29623,-0.04968 -0.43333,-0.1008c-0.25934,0.39291 -0.67276,0.67485 -1.15366,0.76023c-0.11865,0.20731 -0.27848,0.38795 -0.46826,0.53084c0.30939,0.06854 0.58782,0.21891 0.81158,0.42712c-0.88638,-0.04221 -1.71954,-0.13218 -2.5667,-0.22316c-0.08856,-0.03892 -0.17328,-0.08497 -0.25343,-0.1374c-0.05297,0.03378 -0.10787,0.06478 -0.16451,0.0928c-0.58559,-0.06178 -1.18295,-0.12043 -1.81379,-0.16086c-0.43431,-0.32081 -0.71469,-0.83757 -0.71127,-1.41886c0.0024,-0.40798 0.14422,-0.78254 0.38004,-1.07875c-0.12707,-0.24429 -0.1982,-0.52224 -0.19647,-0.81674c0.00569,-0.96648 0.79379,-1.74536 1.76027,-1.73967c0.27863,0.00164 0.54166,0.0683 0.77479,0.18551c0.2345,-0.11446 0.49829,-0.17802 0.77691,-0.17638c0.71712,0.00422 1.33095,0.43919 1.59764,1.05817c0.03473,0.00465 0.06915,0.01034 0.1032,0.017c-0.00552,-0.05831 -0.00818,-0.11744 -0.00783,-0.17726c0.0023,-0.39094 0.13262,-0.75119 0.35098,-1.04123c0.00411,-0.38038 0.12942,-0.73135 0.33897,-1.01638c0.58929,0.1119 1.19701,0.17214 1.8183,0.1758c1.55145,0.00913 3.02246,-0.33554 4.33651,-0.95837c0.07652,0.19842 0.11791,0.41423 0.11659,0.63976c-0.00031,0.05211 -0.00288,0.10367 -0.00764,0.15461c0.07125,0.09571 0.13294,0.19894 0.18367,0.30827c0.28505,-0.19702 0.63132,-0.31156 1.00413,-0.30937c0.96156,0.00566 1.73742,0.78577 1.7397,1.7455c0.87259,0.10357 1.54681,0.84854 1.54152,1.748c-0.00565,0.95987 -0.78304,1.7347 -1.74047,1.73968c0.00373,0.04837 0.00549,0.0973 0.0052,0.14669c-0.00362,0.61557 -0.32464,1.15503 -0.80699,1.46415c-0.31478,0.47869 -0.85798,0.79333 -1.47355,0.78971c-0.96648,-0.00569 -1.74536,-0.79379 -1.73967,-1.76027c0.00161,-0.27391 0.06607,-0.53274 0.17961,-0.76293c-0.0016,-0.03249 -0.00233,-0.0652 -0.00213,-0.09812c0.00031,-0.05201 0.00288,-0.10346 0.00762,-0.15429c-0.02136,-0.01634 -0.04234,-0.03314 -0.06291,-0.05042c-0.1743,0.19003 -0.39001,0.34137 -0.63271,0.43981c-0.0342,0.13831 -0.08484,0.2701 -0.14971,0.3932c-0.11509,0.66965 -0.61038,1.20839 -1.25459,1.38761c-0.55895,-0.13176 -1.08084,-0.23 -1.53022,-0.29373c-0.42204,-0.32185 -0.69315,-0.83108 -0.68979,-1.40272zM212.02077,177.97439c0.16406,-0.11521 0.34876,-0.20294 0.54739,-0.25656c-0.10735,-0.18129 -0.18291,-0.38357 -0.21902,-0.59911c-0.04928,0.27424 -0.16239,0.52617 -0.32334,0.73996c-0.00042,0.03889 -0.00211,0.07748 -0.00502,0.11571z" fill="#6798ff" stroke-width="0.5"/><path d="M205.43028,180.88869c0.83689,0.00493 1.5331,0.59649 1.70107,1.38255c-1.07619,-0.10826 -2.1385,-0.24358 -3.32565,-0.30952c0.2661,-0.63385 0.89443,-1.07732 1.62456,-1.07303z" fill="#fffb66" stroke-width="0.5"/><path d="M201.47092,179.83088c0.16571,0.00098 0.3259,0.02495 0.47756,0.06888c-0.10077,-0.22275 -0.15623,-0.4703 -0.1547,-0.73079c0.00569,-0.96648 0.79379,-1.74536 1.76027,-1.73967c0.96648,0.00569 1.74536,0.79379 1.73967,1.76027c-0.00569,0.96648 -0.79379,1.74536 -1.76027,1.73967c-0.16571,-0.00098 -0.3259,-0.02495 -0.47757,-0.06888c0.10077,0.22275 0.15623,0.4703 0.1547,0.73079c-0.00069,0.11746 -0.01294,0.23214 -0.03566,0.34298c-0.41905,-0.01321 -0.85527,-0.01649 -1.31406,-0.00609c-0.69457,0.01575 -1.38936,0.0612 -2.08443,0.12994c-0.0438,-0.15487 -0.0668,-0.31842 -0.0658,-0.48744c0.00569,-0.96648 0.79379,-1.74536 1.76027,-1.73967z" fill="#fffb66" stroke-width="0.5"/><path d="M210.31191,176.11562c-0.00569,0.96648 -0.79379,1.74536 -1.76027,1.73967c-0.75297,-0.00443 -1.39207,-0.48376 -1.63501,-1.15236c-0.63234,-0.23823 -1.08971,-0.83188 -1.13016,-1.53613c0.5943,0.0541 1.18284,0.09943 1.75457,0.13164c0.86859,0.33008 1.79531,0.54269 2.76087,0.61829c0.007,0.0653 0.0104,0.13166 0.01,0.19889z" fill="#fffb66" stroke-width="0.5"/><path d="M200.92499,181.19252c-0.19123,-0.11345 -0.35893,-0.26225 -0.49417,-0.43735c0.01653,0.09832 0.02485,0.1994 0.02424,0.30251c-0.0021,0.35734 -0.11117,0.68904 -0.29665,0.96491c-0.87289,0.07535 -1.74619,0.18929 -2.62006,0.32911c-0.36055,-0.32276 -0.58629,-0.79268 -0.58322,-1.31463c0.00146,-0.24817 0.05451,-0.48397 0.14892,-0.6973c-0.047,-0.0378 -0.09199,-0.07798 -0.13481,-0.12035c-0.28799,0.20373 -0.64014,0.32257 -1.01981,0.32033c-0.96648,-0.00569 -1.74536,-0.79379 -1.73967,-1.76027c0.0034,-0.57813 0.28677,-1.08913 0.7208,-1.40523c-0.52677,-0.30425 -0.87981,-0.87494 -0.87597,-1.52677c0.00218,-0.37048 0.11933,-0.7134 0.31742,-0.99512c0.02715,-0.00442 0.05428,-0.00903 0.08141,-0.01381c0.60477,0.13161 1.25758,-0.00945 1.92447,-0.17939c0.2821,0.07736 0.5692,0.14268 0.86072,0.19539c0.20103,0.28683 0.31813,0.63661 0.31591,1.01354c-0.0034,0.57813 -0.28677,1.08913 -0.7208,1.40523c0.13053,0.07539 0.2504,0.16715 0.3568,0.27243c0.20097,-0.14217 0.43317,-0.24299 0.68417,-0.29019c-0.02243,-0.11355 -0.03387,-0.23104 -0.03316,-0.35129c0.00569,-0.96648 0.79379,-1.74536 1.76027,-1.73967c0.14874,0.00088 0.29304,0.02029 0.43071,0.05602c0.13808,-0.03411 0.2826,-0.05182 0.43134,-0.05094c0.89155,0.00525 1.62347,0.6763 1.72712,1.53898c0.08467,0.08318 0.1609,0.17489 0.22731,0.27373c-0.06013,-0.17858 -0.0922,-0.37 -0.09103,-0.56897c0.00171,-0.29051 0.07411,-0.56407 0.2008,-0.80447c0.04856,-0.28258 0.16483,-0.54184 0.33142,-0.76062c0.97636,0.11913 1.98744,0.23371 2.98145,0.32335c0.10522,0.2267 0.16329,0.47963 0.16172,0.74611c-0.00079,0.13448 -0.01673,0.26533 -0.04619,0.39093c0.722,0.21914 1.24556,0.89207 1.24089,1.68509c-0.00569,0.96648 -0.79379,1.74536 -1.76027,1.73967c-0.91237,-0.00537 -1.65757,-0.70801 -1.73335,-1.59974c-0.44854,-0.09749 -0.83255,-0.36685 -1.08009,-0.73528c0.05924,0.17595 0.09126,0.36435 0.09106,0.56018c0.08396,0.1143 0.15437,0.23915 0.20885,0.37218c0.3952,0.32314 0.64626,0.81556 0.64302,1.3658c-0.00287,0.48824 -0.20542,0.92862 -0.52977,1.24414c0.01185,0.00703 0.02362,0.0142 0.03528,0.0215c0.32305,-0.36852 0.79825,-0.60005 1.32678,-0.59694c0.96648,0.00569 1.74536,0.79379 1.73967,1.76027c-0.00008,0.01363 -0.00032,0.02723 -0.00071,0.04079c-1.3028,-0.13957 -2.64747,-0.27535 -4.27694,-0.23839c-0.46914,0.01064 -0.93837,0.03483 -1.40773,0.0706c0.08224,-0.31128 0.24805,-0.58841 0.47184,-0.80611z" fill="#fffb66" stroke-width="0.5"/><path d="M186.61995,183.76078c-0.96648,-0.00569 -1.74536,-0.79379 -1.73967,-1.76027c0.00444,-0.75401 0.48508,-1.39383 1.15513,-1.63601c0.0957,-0.06112 0.19772,-0.11318 0.30486,-0.15499c-0.25702,-0.30661 -0.41081,-0.70248 -0.40827,-1.1339c0.00293,-0.49736 0.21306,-0.94504 0.54807,-1.26169c-0.01484,-0.09342 -0.02228,-0.18928 -0.0217,-0.28697c0.00569,-0.96648 0.79379,-1.74536 1.76027,-1.73967c0.05877,0.00035 0.11685,0.00359 0.1741,0.00958c0.08658,-0.51923 0.35099,-0.84278 0.64791,-1.04438c0.2616,0.02208 0.5261,0.03411 0.79309,0.03568c0.40847,0.0024 0.81137,-0.01971 1.2073,-0.06498c0.39536,0.04993 0.79797,0.07679 1.20645,0.07919c0.73,0.16371 1.47139,0.16574 2.20594,0.0362c0.60477,0.13161 1.25758,-0.00945 1.92447,-0.17939c0.82614,0.22656 1.69522,0.34988 2.5926,0.35517c0.47527,0.0028 0.94301,-0.02761 1.40098,-0.08905c0.44349,0.04026 0.88756,0.03939 1.33035,-0.00634c-0.08946,0.18532 -0.21062,0.3524 -0.35639,0.49426c0.00301,0.04371 0.00441,0.08785 0.00415,0.13237c-0.0031,0.52712 -0.23894,0.99843 -0.60952,1.3171c-0.15652,0.17774 -0.3485,0.32342 -0.5648,0.42602c-0.23009,0.10915 -0.48768,0.16954 -0.75938,0.16794c-0.47184,-0.00278 -0.89898,-0.19203 -1.21192,-0.4975c-0.04499,0.05599 -0.09334,0.10914 -0.14476,0.15916c0.40839,0.24228 0.70953,0.64583 0.81618,1.12236c0.2171,-0.09468 0.45706,-0.14657 0.70916,-0.14509c0.96648,0.00569 1.74536,0.79379 1.73967,1.76027c-0.00101,0.17225 -0.02688,0.33854 -0.07418,0.49549c0.56105,0.04356 1.04727,0.35141 1.33519,0.79863c0.27398,-0.17435 0.59964,-0.27454 0.94853,-0.27248c0.7673,0.00452 1.41635,0.50218 1.64844,1.19073c-1.01397,-0.09695 -2.08577,-0.16824 -3.32132,-0.14022c-3.10568,0.07044 -6.21552,0.7346 -9.3358,1.41949c-0.09468,-0.15884 -0.16712,-0.34916 -0.20466,-0.57717c-0.32253,0.41128 -0.82508,0.67429 -1.38818,0.67097c-0.96648,-0.00569 -1.74536,-0.79379 -1.73967,-1.76027c0.00313,-0.53167 0.24304,-1.00658 0.61916,-1.32532c-0.05995,-0.17835 -0.09194,-0.36949 -0.09077,-0.56815c0.00139,-0.23604 0.04944,-0.46089 0.13537,-0.66584c-0.0842,-0.00611 -0.24041,-0.02371 -0.42479,-0.07442c0.00035,0.01624 0.00048,0.03254 0.00038,0.0489c-0.00435,0.73855 -0.46558,1.36754 -1.11416,1.62061c0.25702,0.30661 0.41081,0.70248 0.40827,1.1339c-0.00444,0.75401 -0.48508,1.39383 -1.15513,1.63601c-0.2745,0.17531 -0.60105,0.27611 -0.95098,0.27405z" fill="#ff9766" stroke-width="0.5"/><path d="" fill="#ff9766" stroke-width="0.5"/><path d="M167.75109,177.04615c0.94269,0.00555 1.70691,0.75547 1.73868,1.68925c0.60092,-0.46276 1.22596,-0.34497 1.63674,-0.1712c0.04956,-0.78151 0.72138,-1.29772 0.72138,-1.29772l1.5588,-1.19775c0,0 1.38767,-1.06625 2.45391,0.32142c0.29115,0.37892 0.39933,0.73387 0.40276,1.04969c0.58643,0.28551 0.98898,0.88885 0.98488,1.58464c-0.00139,0.23616 -0.04949,0.46111 -0.13549,0.66614c0.03498,-0.00187 0.07024,-0.00273 0.10573,-0.00252c0.14874,0.00088 0.29304,0.02029 0.43071,0.05602c0.13808,-0.03411 0.2826,-0.05182 0.43134,-0.05094c0.17532,0.00103 0.34445,0.02781 0.50386,0.07673c-0.32513,-0.31988 -0.52566,-0.76576 -0.52277,-1.25789c0.00393,-0.66691 0.3804,-1.24449 0.93095,-1.5366c-0.14623,-0.25753 -0.22897,-0.55569 -0.2271,-0.87309c0.00569,-0.96648 0.79379,-1.74536 1.76027,-1.73967c0.96648,0.00569 1.74536,0.79379 1.73967,1.76027c-0.00018,0.03019 -0.00111,0.06018 -0.0028,0.08999c0.31321,-0.28423 0.72972,-0.4564 1.186,-0.45372c0.12025,0.00071 0.23758,0.01353 0.35088,0.0373c0.16122,-0.80508 0.87443,-1.40942 1.72618,-1.4044c0.17032,0.001 0.3348,0.0263 0.4902,0.0726c0.18791,-0.1095 0.39801,-0.18498 0.62182,-0.21804c1.00246,0.34486 2.07727,0.53493 3.19607,0.54151c0.40847,0.0024 0.81137,-0.01971 1.2073,-0.06498c0.39536,0.04993 0.79797,0.07679 1.20645,0.07919c0.73,0.16371 1.47139,0.16574 2.20594,0.0362c0.60477,0.13161 1.25758,-0.00945 1.92447,-0.17939c0.79813,0.21888 1.63632,0.34141 2.5014,0.35423c-0.36352,0.34297 -0.79708,0.46772 -0.79708,0.46772c-0.97868,0.2816 -1.95737,0.5632 -2.93605,0.8448l-1.22196,0.34141c0,0 -0.59395,0.16593 -1.17518,-0.05181l-0.31301,0.11812c-0.23495,0.23107 -0.5348,0.39621 -0.86947,0.46571c0.21675,0.2933 0.34399,0.65659 0.34168,1.04934c-0.00008,0.0144 -0.00034,0.02877 -0.00077,0.04309c0.51442,0.30734 0.85748,0.87108 0.8537,1.51368c-0.00143,0.24299 -0.05231,0.47411 -0.14306,0.68389l0.34971,0.21245c0.14437,-0.03757 0.29596,-0.05716 0.45221,-0.05624c0.60078,0.00354 1.12906,0.30939 1.44147,0.7725c0.37584,0.20686 0.73733,0.58333 0.80215,1.2685c-1.72592,0.33611 -3.4544,0.73767 -5.18652,1.10712c-0.09039,-0.16898 -0.1563,-0.37114 -0.18453,-0.61296c-0.13251,-0.07676 -0.26502,-0.15351 -0.39753,-0.23027c-0.12146,0.19349 -0.27972,0.36146 -0.46489,0.49417c-0.46768,0.84717 -1.54893,0.84081 -1.54893,0.84081l-0.33183,-0.00195c-0.02668,0.03455 -0.05462,0.06808 -0.08375,0.10052c-0.73667,0.12709 -1.47411,0.23823 -2.21239,0.32599c-0.26835,-0.16371 -0.48908,-0.39761 -0.63679,-0.67602c-0.19581,0.11118 -0.4151,0.18566 -0.64848,0.21416c-0.10731,0.2412 -0.26754,0.45355 -0.46587,0.6224c-0.2516,0.01571 -0.5033,0.02803 -0.75512,0.03667c-0.37868,0.01299 -0.82101,0.05169 -1.3053,0.1151c-0.39914,-0.2496 -0.69015,-0.65558 -0.78774,-1.13162c-0.63114,-0.06113 -1.26228,-0.12225 -1.89343,-0.18338c0,0 -0.70003,-0.06779 -1.16956,-0.56122c-0.12646,0.02823 -0.25805,0.04275 -0.39311,0.04196c-0.01479,-0.00009 -0.02953,-0.00035 -0.04423,-0.00081c0.0447,0.15632 0.0682,0.32154 0.06719,0.49233c-0.00569,0.96648 -0.79379,1.74536 -1.76027,1.73967c-0.96648,-0.00569 -1.74536,-0.79379 -1.73967,-1.76027c0.00038,-0.06495 0.0043,-0.12906 0.01156,-0.19214c-0.2517,0.13747 -0.5408,0.21489 -0.84791,0.21308c-0.60799,-0.00358 -1.14174,-0.31679 -1.45263,-0.78925c-0.29149,-0.1479 -0.583,-0.2958 -0.87449,-0.4437l-1.16741,-0.89527c0,0 -0.64608,-0.52313 -0.68709,-1.29358c-0.27887,0.18388 -0.61333,0.29007 -0.97242,0.28796c-0.96648,-0.00569 -1.74536,-0.79379 -1.73967,-1.76027c0.00569,-0.96648 0.79379,-1.74536 1.76027,-1.73967zM185.83292,180.77333l0.62165,0.00366c-0.08277,-0.20519 -0.12775,-0.4296 -0.12637,-0.66455c0.0003,-0.05161 0.00283,-0.10268 0.00751,-0.15312c-0.05049,0.00408 -0.1016,0.00601 -0.1532,0.00571c-0.73855,-0.00435 -1.36754,-0.46558 -1.62061,-1.11416c-0.11045,0.09259 -0.23249,0.17177 -0.36359,0.23509c0.15318,0.16801 0.27404,0.36594 0.35283,0.58391c0.17531,0.2745 0.27611,0.60105 0.27405,0.95098c-0.00094,0.1591 -0.02307,0.31312 -0.06373,0.45938c0.00461,0.00325 0.00919,0.00652 0.01377,0.00981c0.49047,-0.32006 1.05769,-0.31672 1.05769,-0.31672zM173.8601,180.19795c0,0 1.2252,0.62164 0.95363,1.84891c0.20597,-0.08352 0.43138,-0.12892 0.66743,-0.12753c0.01479,0.00009 0.02953,0.00035 0.04423,0.00081c-0.0447,-0.15632 -0.0682,-0.32154 -0.06719,-0.49233c0.00139,-0.23616 0.04949,-0.46111 0.13549,-0.66614c-0.03498,0.00187 -0.07024,0.00273 -0.10573,0.00252c-0.60096,-0.00354 -1.12939,-0.30958 -1.44176,-0.77293l-0.06583,0.05058c0,0 -0.06963,0.05349 -0.18966,0.12093c0.02313,0.01174 0.04625,0.02347 0.06938,0.0352zM181.68833,177.49888c0.00018,-0.03019 0.00111,-0.06018 0.0028,-0.08999c-0.10757,0.09762 -0.22732,0.18202 -0.35668,0.25065c0.04727,0.08326 0.08792,0.17077 0.12121,0.26181c0.08066,-0.05124 0.16579,-0.09605 0.25466,-0.13371c-0.01503,-0.09398 -0.02257,-0.19045 -0.02199,-0.28875z" fill="#ff6666" stroke-width="0.5"/><path d="M199.48757,175.04327c-0.10683,-0.00063 -0.21137,-0.01081 -0.3128,-0.02975c0.28142,-0.00398 0.56005,-0.0196 0.83543,-0.0464c-0.16521,0.05052 -0.34076,0.07723 -0.52263,0.07616z" fill="#ff6666" stroke-width="0.5"/><path d="M165.8221,182.55213c0.96648,0.00569 1.74536,0.79379 1.73967,1.76027c-0.00569,0.96648 -0.79379,1.74536 -1.76027,1.73967c-0.96648,-0.00569 -1.74536,-0.79379 -1.73967,-1.76027c0.00569,-0.96648 0.79379,-1.74536 1.76027,-1.73967z" fill="#ff6666" stroke-width="0.5"/><path d="M178.42636,179.52283c0.96648,0.00569 1.74536,0.79379 1.73967,1.76027c-0.00423,0.71828 -0.4406,1.33294 -1.06119,1.59893c0.2867,-0.0776 0.50911,-0.07629 0.50911,-0.07629l1.89652,0.01116c0,0 0.17743,0.00104 0.41896,0.05897c0.14163,-0.03604 0.29013,-0.05479 0.44309,-0.05389c0.96648,0.00569 1.74536,0.79379 1.73967,1.76027c-0.00049,0.08328 -0.00679,0.16515 -0.01851,0.24527c-0.44856,0.03717 -0.89744,0.0643 -1.34667,0.07971c-1.13348,0.0389 -2.83724,0.30806 -4.52966,0.78115c-0.15335,-0.18408 -0.27451,-0.42304 -0.33028,-0.73326c-0.05348,0.37811 -0.22768,0.71709 -0.48218,0.97698c-0.48559,0.15606 -0.96234,0.32894 -1.41608,0.51799c-0.24967,-0.02344 -0.48396,-0.09928 -0.69186,-0.21636c-0.439,0.2165 -0.87693,0.21392 -0.87693,0.21392l-0.84803,-0.01218c-0.63183,-0.06119 -1.26367,-0.12238 -1.8955,-0.18357c0,0 -0.481,-0.04658 -0.91299,-0.34355c-0.56432,0.25635 -1.16711,0.13209 -1.16711,0.13209l-0.822,-0.1699c-1.43204,-0.26491 -2.88605,-0.45626 -4.3422,-0.507c-0.32249,0.41204 -0.82552,0.67563 -1.38923,0.67231c-0.70003,-0.00412 -1.30163,-0.4187 -1.57798,-1.01423c-0.28505,0.19702 -0.63131,0.31156 -1.00412,0.30937c-0.7791,-0.00459 -1.43628,-0.51759 -1.65885,-1.22263c-0.77077,0.16378 -1.4509,-0.35261 -1.4509,-0.35261l-0.13219,-0.10037c0.00101,0.02616 0.00144,0.05247 0.00129,0.07891c-0.00569,0.96648 -0.79379,1.74536 -1.76027,1.73967c-0.61557,-0.00362 -1.15504,-0.32464 -1.46416,-0.80699c-0.34862,-0.22926 -0.61024,-0.57966 -0.72526,-0.99096c-0.44816,0.23068 -0.90485,0.22799 -0.90485,0.22799c-0.68965,-0.00406 -1.37929,-0.00812 -2.06893,-0.01218l-2.58617,-0.01522c0,0 -1.49935,-0.00883 -1.7142,-1.39798c-0.05731,0.00532 -0.11543,0.00788 -0.1742,0.00753c-0.2521,-0.00148 -0.49143,-0.0562 -0.7074,-0.15343c-0.18323,0.77577 -0.8824,1.35099 -1.71345,1.3461c-0.96648,-0.00569 -1.74536,-0.79379 -1.73967,-1.76027c0.00569,-0.96648 0.79379,-1.74536 1.76027,-1.73967c0.2521,0.00148 0.49143,0.0562 0.7074,0.15343c0.18323,-0.77577 0.8824,-1.35099 1.71345,-1.3461c0.65932,0.00388 1.23133,0.37187 1.52652,0.91222c0.45089,-0.90058 1.57688,-0.89395 1.57688,-0.89395c0.30736,0.00181 0.61473,0.00362 0.9221,0.00543c0.23263,-0.69927 0.89427,-1.20166 1.67117,-1.19708c0.59534,0.0035 1.1195,0.30388 1.43294,0.75997c0.27982,0.11009 0.50024,0.29228 0.65798,0.45925c0.04777,0.00028 0.09555,0.00056 0.14332,0.00084l0.51723,0.00304c0,0 0.22601,0.00133 0.5151,0.08425c0.29497,-0.55878 0.88337,-0.93811 1.55891,-0.93413c0.65993,0.00388 1.23239,0.37256 1.52734,0.91373c0.08401,-0.89312 0.83849,-1.58946 1.75252,-1.58408c0.0289,0.00017 0.05764,0.00104 0.0862,0.0026c0.02857,-0.00122 0.05731,-0.00175 0.08622,-0.00158c0.59785,0.00352 1.12391,0.30642 1.43689,0.76573c0.45137,-0.65458 1.31085,-0.73995 1.31085,-0.73995l1.37257,-0.13631c0.45081,-0.89337 1.56958,-0.89047 1.56958,-0.89047l0.58984,0.00152c1.42643,0.00386 2.8531,-0.01097 4.2793,-0.04444c0.69892,-0.17726 1.39683,-0.35845 2.09355,-0.54411l0.36879,-0.21957c0,0 1.13183,-0.55762 1.94687,0.23516c0.03455,-1.23449 1.35018,-1.55518 1.35018,-1.55518c0.69066,-0.16835 1.38132,-0.33671 2.07198,-0.50505l1.11438,-0.04569c0,0 0.1405,0.00083 0.34164,0.04182c0.52243,-0.11286 1.39195,-0.10771 1.90754,0.93881c0.77339,1.56983 -0.79643,2.34322 -0.79643,2.34322l-1.72918,0.85191c0,0 -0.43806,0.21582 -0.96537,0.18803c0.13093,0.2471 0.20437,0.52923 0.20261,0.82846c-0.00103,0.17563 -0.0279,0.34505 -0.07698,0.50471c0.07229,-0.00865 0.14594,-0.01291 0.22064,-0.01247zM178.40576,183.02277c-0.96648,-0.00569 -1.74536,-0.79379 -1.73967,-1.76027c0.00103,-0.17563 0.0279,-0.34505 0.07698,-0.50471c-0.07229,0.00865 -0.14594,0.01291 -0.22064,0.01247c-0.34296,-0.00202 -0.66231,-0.10256 -0.93135,-0.27464c0.1689,0.27105 0.26567,0.59155 0.26365,0.93452c-0.0041,0.6967 -0.41477,1.29591 -1.00575,1.57402c0.14036,0.03296 0.30327,0.08515 0.46598,0.16778c0.25214,-0.13811 0.54189,-0.21589 0.84974,-0.21408c0.83407,0.00491 1.52841,0.59252 1.69936,1.37462c0.07571,-0.80248 0.54984,-1.18317 0.98547,-1.36377c-0.14185,0.03616 -0.29058,0.05497 -0.4438,0.05407zM174.78276,179.00999c0.00104,-0.17638 0.02814,-0.34651 0.07762,-0.50677c-0.01805,0.0172 -0.03605,0.03376 -0.05389,0.04966c-0.05817,0.31312 -0.18678,0.55287 -0.34779,0.73641c0.16061,0.15398 0.29187,0.33825 0.38466,0.54357c0.07037,0.0328 0.13818,0.07014 0.20307,0.11165c-0.1689,-0.27105 -0.26567,-0.59155 -0.26365,-0.93452zM175.39173,177.45456c-0.00754,0.09999 -0.02502,0.19457 -0.05022,0.28373c0.06498,-0.0604 0.13453,-0.11591 0.2081,-0.16595c-0.05391,-0.03475 -0.10673,-0.07385 -0.15788,-0.11778z" fill="#d0cfcf" stroke-width="0.5"/><path d="M137.91996,177.56023c0.96648,0.00569 1.74536,0.79379 1.73967,1.76027c-0.00025,0.04192 -0.00196,0.08348 -0.0051,0.12464c0.6105,0.27616 1.03362,0.89228 1.02942,1.60556c-0.00569,0.96648 -0.79379,1.74536 -1.76027,1.73967c-0.96648,-0.00569 -1.74536,-0.79379 -1.73967,-1.76027c0.00025,-0.04192 0.00196,-0.08348 0.0051,-0.12464c-0.6105,-0.27616 -1.03362,-0.89228 -1.02942,-1.60556c0.00569,-0.96648 0.79379,-1.74536 1.76027,-1.73967z" fill="#d0cfcf" stroke-width="0.5"/><path d="M219.17905,174.64262c0,0 4.91798,3.05648 8.58166,3.02139c1.78003,-0.01705 7.85514,-3.95652 7.85514,-3.95652l13.72987,0.19069l0.11667,12.17901l-13.88062,0.21535c0,0 -6.15103,-3.81673 -7.94722,-3.79953c-3.56226,0.03412 -8.5255,2.84042 -8.5255,2.84042z" fill="url(#color-1)" stroke-width="0"/></g></g></svg>