<svg version="1.1" xmlns="http://www.w3.org/2000/svg" xmlns:xlink="http://www.w3.org/1999/xlink" width="44.18182" height="56.45455" viewBox="0,0,44.18182,56.45455"><g transform="translate(-217.90909,-151.77272)"><g data-paper-data="{&quot;isPaintingLayer&quot;:true}" fill-rule="nonzero" stroke-linecap="butt" stroke-linejoin="miter" stroke-miterlimit="10" stroke-dasharray="" stroke-dashoffset="0" style="mix-blend-mode: normal"><path d="M218.40909,207.72728v-55.45455h43.18182v55.45455z" fill="#c5c5c5" stroke="#191919" stroke-width="1"/><text transform="translate(221.57375,202.86497) scale(0.23631,0.23631)" font-size="40" xml:space="preserve" fill="#000000" fill-rule="nonzero" stroke="none" stroke-width="1" stroke-linecap="butt" stroke-linejoin="miter" stroke-miterlimit="10" stroke-dasharray="" stroke-dashoffset="0" font-family="Serif" font-weight="normal" text-anchor="start" style="mix-blend-mode: normal"><tspan x="0" dy="0">Ship Yard</tspan></text><path d="M221.1875,192.77671v-37.72731h37.625v37.72731z" fill="#9c9c9c" stroke="#000000" stroke-width="1"/><path d="M223.7554,190.71039v-9.25h32.75v9.25z" fill="#000000" stroke="none" stroke-width="0"/><path d="M240.3804,186.21039c0,0.25 -0.25,0.25 -0.25,0.25c-0.83334,0 -1.91666,0 -2.75,0c0,0 -0.25,0 -0.25,-0.25c0,-0.25 0.25,-0.25 0.25,-0.25c0.83334,0 1.66666,0 2.5,0h0.25c0,0 0.25,0 0.25,0.25z" fill="#ffea00" stroke="none" stroke-width="0.5"/><path d="M246.1304,186.58539c0,0.25 -0.25,0.25 -0.25,0.25c-0.75,0 -1.75,0 -2.5,0c0,0 -0.25,0 -0.25,-0.25c0,-0.25 0.25,-0.25 0.25,-0.25c0.75,0 1.5,0 2.25,0h0.25c0,0 0.25,0 0.25,0.25z" fill="#ffea00" stroke="none" stroke-width="0.5"/><path d="M253.2554,186.46039c0,0.25 -0.25,0.25 -0.25,0.25h-0.125c-0.92081,0 -2.28121,0.2435 -3.1118,-0.15139c0,0 -0.22361,-0.1118 -0.1118,-0.33541c0.1118,-0.22361 0.33541,-0.1118 0.33541,-0.1118c0.6849,0.36862 2.10308,0.09861 2.8882,0.09861h0.125c0,0 0.25,0 0.25,0.25z" fill="#ffea00" stroke="none" stroke-width="0.5"/><path d="M224.26114,180.59217v-3.76305h31.45493v3.76305z" fill="#cbcbcb" stroke="#000000" stroke-width="0.5"/><path d="M227.5054,185.96039c0,0.25 -0.25,0.25 -0.25,0.25c-0.41666,0 -1.08334,0 -1.5,0c0,0 -0.25,0 -0.25,-0.25c0,-0.25 0.25,-0.25 0.25,-0.25c0.41666,0 0.83334,0 1.25,0h0.25c0,0 0.25,0 0.25,0.25z" fill="#ffea00" stroke="none" stroke-width="0.5"/><path d="M233.8804,186.08539c0,0.25 -0.25,0.25 -0.25,0.25c-0.83334,0 -1.79166,0 -2.625,0c0,0 -0.25,0 -0.25,-0.25c0,-0.25 0.25,-0.25 0.25,-0.25c0.83334,0 1.66666,0 2.5,0h0.125c0,0 0.25,0 0.25,0.25z" fill="#ffea00" stroke="none" stroke-width="0.5"/><path d="M223.15124,173.01356v-15.69478h12.15472v15.69478z" fill="#000000" stroke="none" stroke-width="0"/></g></g></svg>