<svg version="1.1" xmlns="http://www.w3.org/2000/svg" xmlns:xlink="http://www.w3.org/1999/xlink" width="17.7932" height="17.23278" viewBox="0,0,17.7932,17.23278"><defs><radialGradient cx="240" cy="180" r="8.8966" gradientUnits="userSpaceOnUse" id="color-1"><stop offset="0" stop-color="#b6b6b6"/><stop offset="1" stop-color="#9b9b9b"/></radialGradient></defs><g transform="translate(-231.1034,-171.38361)"><g data-paper-data="{&quot;isPaintingLayer&quot;:true}" fill-rule="nonzero" stroke-linecap="butt" stroke-linejoin="miter" stroke-miterlimit="10" stroke-dasharray="" stroke-dashoffset="0" style="mix-blend-mode: normal"><path d="M231.1034,180c0,-4.7587 3.98314,-8.61639 8.8966,-8.61639c4.91346,0 8.8966,3.85769 8.8966,8.61639c0,4.7587 -3.98314,8.61639 -8.8966,8.61639c-4.91346,0 -8.8966,-3.85769 -8.8966,-8.61639z" fill="url(#color-1)" stroke="none" stroke-width="0"/><path d="M237.28537,182.03726v-4.20312h11.34842v4.20312z" fill="#8b8b8b" stroke="#000000" stroke-width="0.25"/><path d="M242.60932,179.9357c0,-1.0059 0.68999,-1.82135 1.54114,-1.82135c0.85115,0 1.54114,0.81545 1.54114,1.82135c0,1.0059 -0.68999,1.82135 -1.54114,1.82135c-0.85115,0 -1.54114,-0.81545 -1.54114,-1.82135z" fill="#323232" stroke="#000000" stroke-width="0.5"/></g></g></svg>