<svg version="1.1" xmlns="http://www.w3.org/2000/svg" xmlns:xlink="http://www.w3.org/1999/xlink" width="44.18182" height="56.45455" viewBox="0,0,44.18182,56.45455"><defs><radialGradient cx="249.65002" cy="171.95692" r="16.25301" gradientUnits="userSpaceOnUse" id="color-1"><stop offset="0" stop-color="#c6c6c6"/><stop offset="1" stop-color="#e7e7e7"/></radialGradient><radialGradient cx="234.24684" cy="170.0448" r="3.50555" gradientUnits="userSpaceOnUse" id="color-2"><stop offset="0" stop-color="#c78888"/><stop offset="1" stop-color="#e7e7e7"/></radialGradient></defs><g transform="translate(-217.90909,-151.77274)"><g data-paper-data="{&quot;isPaintingLayer&quot;:true}" fill-rule="nonzero" stroke-linejoin="miter" stroke-miterlimit="10" stroke-dasharray="" stroke-dashoffset="0" style="mix-blend-mode: normal"><path d="M218.40909,207.72729v-55.45455h43.18182v55.45455z" fill="#c5c5c5" stroke="#191919" stroke-width="1" stroke-linecap="butt"/><text transform="translate(220.05201,194.92496) scale(0.20295,0.20295)" font-size="40" xml:space="preserve" fill="#000000" fill-rule="nonzero" stroke="none" stroke-width="1" stroke-linecap="butt" stroke-linejoin="miter" stroke-miterlimit="10" stroke-dasharray="" stroke-dashoffset="0" font-family="Serif" font-weight="normal" text-anchor="start" style="mix-blend-mode: normal"><tspan x="0" dy="0">Atmosphere</tspan><tspan x="0" dy="48px"> Condenser</tspan></text><g><path d="M226.23765,186.68142v-30.02409h29.04712v30.02409z" fill="none" stroke="#7b7b7b" stroke-width="0.5" stroke-linecap="butt"/><g><path d="M243.48875,171.95692c0,-8.9763 2.7585,-16.25301 6.16127,-16.25301c3.40277,0 6.16127,7.27671 6.16127,16.25301c0,8.9763 -2.7585,16.25301 -6.16127,16.25301c-3.40277,0 -6.16127,-7.27671 -6.16127,-16.25301z" fill="url(#color-1)" stroke="#000000" stroke-width="0.5" stroke-linecap="butt"/><path d="M231.59112,171.00086l0.21246,-13.17237h17.63398" fill="none" stroke="#d4d4d4" stroke-width="1.5" stroke-linecap="round"/><path d="M237.53994,172.06315l-0.21246,14.0222l-8.92322,0.63737l-0.42492,-18.48381h13.80975" fill="none" stroke="#d4d4d4" stroke-width="1.5" stroke-linecap="round"/><path d="M249.43756,185.87289h-11.89763" fill="none" stroke="#d4d4d4" stroke-width="1.5" stroke-linecap="round"/><path d="M230.74129,170.0448c0,-1.93605 1.5695,-3.50555 3.50555,-3.50555c1.93605,0 3.50555,1.5695 3.50555,3.50555c0,1.93605 -1.5695,3.50555 -3.50555,3.50555c-1.93605,0 -3.50555,-1.5695 -3.50555,-3.50555z" fill="url(#color-2)" stroke="none" stroke-width="0" stroke-linecap="butt"/></g></g></g></g></svg>