<svg version="1.1" xmlns="http://www.w3.org/2000/svg" xmlns:xlink="http://www.w3.org/1999/xlink" width="17.89973" height="19.625" viewBox="0,0,17.89973,19.625"><defs><radialGradient cx="245.22976" cy="180.16917" r="9.5625" gradientUnits="userSpaceOnUse" id="color-1"><stop offset="0" stop-color="#c6c6c6"/><stop offset="1" stop-color="#e7e7e7"/></radialGradient><radialGradient cx="236.16726" cy="179.04417" r="2.0625" gradientUnits="userSpaceOnUse" id="color-2"><stop offset="0" stop-color="#c78888"/><stop offset="1" stop-color="#e7e7e7"/></radialGradient></defs><g transform="translate(-231.20502,-170.35667)"><g data-paper-data="{&quot;isPaintingLayer&quot;:true}" fill-rule="nonzero" stroke-linejoin="miter" stroke-miterlimit="10" stroke-dasharray="" stroke-dashoffset="0" style="mix-blend-mode: normal"><path d="M231.45503,188.83237v-17.66475h17.08995v17.66475z" fill="none" stroke="#7b7b7b" stroke-width="0.5" stroke-linecap="butt"/><path d="M241.60476,180.16917c0,-5.28123 1.62297,-9.5625 3.625,-9.5625c2.00203,0 3.625,4.28127 3.625,9.5625c0,5.28123 -1.62297,9.5625 -3.625,9.5625c-2.00203,0 -3.625,-4.28127 -3.625,-9.5625z" fill="url(#color-1)" stroke="#000000" stroke-width="0.5" stroke-linecap="butt"/><path d="M245.10476,171.85667h-10.375l-0.125,7.75" fill="none" stroke="#d4d4d4" stroke-width="1.5" stroke-linecap="round"/><path d="M238.10476,180.23167l-0.125,8.25l-5.25,0.375l-0.25,-10.875h8.125" fill="none" stroke="#d4d4d4" stroke-width="1.5" stroke-linecap="round"/><path d="M245.10476,188.35667h-7" fill="none" stroke="#d4d4d4" stroke-width="1.5" stroke-linecap="round"/><path d="M234.10476,179.04417c0,-1.13908 0.92342,-2.0625 2.0625,-2.0625c1.13908,0 2.0625,0.92342 2.0625,2.0625c0,1.13908 -0.92342,2.0625 -2.0625,2.0625c-1.13908,0 -2.0625,-0.92342 -2.0625,-2.0625z" fill="url(#color-2)" stroke="none" stroke-width="0" stroke-linecap="butt"/></g></g></svg>