<svg version="1.1" xmlns="http://www.w3.org/2000/svg" xmlns:xlink="http://www.w3.org/1999/xlink" width="20.27865" height="35.77299" viewBox="0,0,20.27865,35.77299"><g transform="translate(-230.45503,-154.05938)"><g data-paper-data="{&quot;isPaintingLayer&quot;:true}" fill-rule="nonzero" stroke-linejoin="miter" stroke-miterlimit="10" stroke-dasharray="" stroke-dashoffset="0" style="mix-blend-mode: normal"><path d="M233.81329,177.4687c0,-1.79493 2.18261,-3.25 4.875,-3.25c2.69239,0 4.875,1.45507 4.875,3.25c0,1.79493 -2.18261,3.25 -4.875,3.25c-2.69239,0 -4.875,-1.45507 -4.875,-3.25z" fill="#c0c0c0" stroke="none" stroke-width="0" stroke-linecap="butt"/><path d="M231.45503,188.83237v-17.66475h17.08995v17.66475z" fill="none" stroke="#000000" stroke-width="2" stroke-linecap="butt"/><path d="M235.06329,177.0937v-9.75" fill="none" stroke="#7b7b7b" stroke-width="1.5" stroke-linecap="round"/><path d="M237.81329,178.7187l-0.125,-9.625" fill="none" stroke="#7b7b7b" stroke-width="1.5" stroke-linecap="round"/><path d="M239.31329,174.3437l-0.125,-7" fill="none" stroke="#7b7b7b" stroke-width="1.5" stroke-linecap="round"/><path d="M243.31329,188.4687v-17.75h4.75v17.75z" fill="#a0a0a0" stroke="none" stroke-width="0" stroke-linecap="butt"/><path d="M233.56329,177.3437v8.5l10,0.125" fill="none" stroke="#a0a0a0" stroke-width="1.5" stroke-linecap="round"/><path d="M248.23367,154.05938c1.38071,0 2.5,1.11929 2.5,2.5c0,1.38071 -1.11929,2.5 -2.5,2.5c-0.10739,0 -0.21319,-0.00677 -0.31701,-0.01991c-0.39392,0.60735 -1.04428,1.03296 -1.79772,1.12345c-0.09701,0.59529 -0.40426,1.11997 -0.84304,1.49534c-0.44121,0.70905 -1.22756,1.18103 -2.12415,1.18103c-0.04223,0 -0.08421,-0.00105 -0.12592,-0.00312c-0.2717,0.4693 -0.6916,0.84209 -1.1957,1.05434c0.00096,0.00606 0.0019,0.01213 0.00282,0.0182c0.78541,0.42151 1.31949,1.25052 1.31949,2.20428c0,1.38071 -1.11929,2.5 -2.5,2.5c-0.67069,0 -1.27969,-0.26411 -1.72869,-0.69399c-0.44899,0.42989 -1.058,0.69399 -1.72869,0.69399c-0.4462,0 -0.8651,-0.11689 -1.22774,-0.32173c-1.1932,-0.18921 -2.10537,-1.2226 -2.10537,-2.46903c0,-0.79548 0.37153,-1.50418 0.95053,-1.96205c-0.04949,-0.19622 -0.07577,-0.40168 -0.07577,-0.61327c0,-1.38071 1.11929,-2.5 2.5,-2.5c0.04039,0 0.08056,0.00096 0.12048,0.00285c0.27856,-1.07676 1.25664,-1.87203 2.42047,-1.87203c0.35639,0 0.69536,0.07457 1.00216,0.20897c0.02686,-0.00085 0.05382,-0.00128 0.08088,-0.00128c0.04223,0 0.08421,0.00105 0.12592,0.00312c0.14255,-0.24623 0.3259,-0.46589 0.54081,-0.64974c0.39104,-0.62842 1.05317,-1.07061 1.82288,-1.16306c0.19361,-1.18804 1.22457,-2.09484 2.46734,-2.09484c0.10739,0 0.21319,0.00677 0.31701,0.01991c0.44556,-0.68696 1.2192,-1.14142 2.09898,-1.14142z" fill="#ffffff" stroke="none" stroke-width="0.5" stroke-linecap="butt"/></g></g></svg>