<svg version="1.1" xmlns="http://www.w3.org/2000/svg" xmlns:xlink="http://www.w3.org/1999/xlink" width="13.66606" height="13.18843" viewBox="0,0,13.66606,13.18843"><g transform="translate(-233.16697,-173.40579)"><g data-paper-data="{&quot;isPaintingLayer&quot;:true}" fill="#422300" fill-rule="nonzero" stroke="none" stroke-width="0" stroke-linecap="butt" stroke-linejoin="miter" stroke-miterlimit="10" stroke-dasharray="" stroke-dashoffset="0" style="mix-blend-mode: normal"><path d="M233.16697,176.25152c0,-1.57165 1.54955,-2.84573 3.46102,-2.84573c1.91147,0 3.46102,1.27408 3.46102,2.84573c0,1.57165 -1.54955,2.84573 -3.46102,2.84573c-1.91147,0 -3.46102,-1.27408 -3.46102,-2.84573z"/><path d="M233.5526,180.2203c0,-3.12676 2.67556,-5.6615 5.97603,-5.6615c3.30047,0 5.97603,2.53474 5.97603,5.6615c0,3.12676 -2.67556,5.6615 -5.97603,5.6615c-3.30047,0 -5.97603,-2.53474 -5.97603,-5.6615z"/><path d="M242.15971,186.29603c-1.37601,-0.75941 -1.74275,-2.73168 -0.81916,-4.40521c0.9236,-1.67352 2.7878,-2.41456 4.1638,-1.65516c1.37601,0.75941 1.74275,2.73168 0.81916,4.4052c-0.9236,1.67352 -2.7878,2.41456 -4.1638,1.65516z"/></g></g></svg>