<svg version="1.1" xmlns="http://www.w3.org/2000/svg" xmlns:xlink="http://www.w3.org/1999/xlink" width="44.18182" height="56.45455" viewBox="0,0,44.18182,56.45455"><defs><radialGradient cx="240" cy="176.95651" r="15.63043" gradientUnits="userSpaceOnUse" id="color-1"><stop offset="0" stop-color="#b6b6b6"/><stop offset="1" stop-color="#9b9b9b"/></radialGradient></defs><g transform="translate(-217.90909,-151.77272)"><g data-paper-data="{&quot;isPaintingLayer&quot;:true}" fill-rule="nonzero" stroke-linecap="butt" stroke-linejoin="miter" stroke-miterlimit="10" stroke-dasharray="" stroke-dashoffset="0" style="mix-blend-mode: normal"><path d="M218.40909,207.72728v-55.45455h43.18182v55.45455z" fill="#c5c5c5" stroke="#191919" stroke-width="1"/><text transform="translate(219.61723,203.46278) scale(0.20461,0.20461)" font-size="40" xml:space="preserve" fill="#000000" fill-rule="nonzero" stroke="none" stroke-width="1" stroke-linecap="butt" stroke-linejoin="miter" stroke-miterlimit="10" stroke-dasharray="" stroke-dashoffset="0" font-family="Serif" font-weight="normal" text-anchor="start" style="mix-blend-mode: normal"><tspan x="0" dy="0">Orbital Gun</tspan></text><g><path d="M224.36957,176.95651c0,-8.36056 6.99798,-15.13813 15.63043,-15.13813c8.63245,0 15.63043,6.77757 15.63043,15.13813c0,8.36056 -6.99798,15.13813 -15.63043,15.13813c-8.63245,0 -15.63043,-6.77757 -15.63043,-15.13813z" fill="url(#color-1)" stroke="none" stroke-width="0"/><path d="M235.23067,180.53576v-7.38446h19.93803v7.38446z" fill="#8b8b8b" stroke="#000000" stroke-width="0.25"/><path d="M244.58431,176.84353c0,-1.76726 1.21224,-3.19993 2.70763,-3.19993c1.49538,0 2.70763,1.43266 2.70763,3.19993c0,1.76726 -1.21224,3.19993 -2.70763,3.19993c-1.49538,0 -2.70763,-1.43266 -2.70763,-3.19993z" fill="#323232" stroke="#000000" stroke-width="0.5"/></g></g></g></svg>